<?xml version="1.0" encoding="UTF-8"?>
<svg id="Layer_1" data-name="Layer 1" xmlns="http://www.w3.org/2000/svg" viewBox="0 0 488.61 493.09">
  <g>
    <path d="M242.65,249c9.72-8.64,9.57-22.18,3.6-32.99-.8-1.46-2.1-4.4-4.02-3.82-1.33.4-4.86,6.47-5.53,8-4.27,9.81-3.67,22.52,5.94,28.81ZM240.54,231.5c1.28-4.84,4.5.95,4.84,3.41.35,2.61-1.26,4.75-2.05,7.12l-1.97-.23c-1.34-3.05-1.66-7.06-.81-10.3Z"/>
    <path d="M276.15,269.12c-.43,0-7.31,1.92-8.24,2.26-7.62,2.81-19.96,14.43-21.39,22.61-2.07,11.85,10.91,7.92,17.13,4.64,10.24-5.4,19.79-17.54,19.75-29.5h-7.25ZM263.61,289.33c-2.2,1.86-6.71,5.44-9.21,6.55-1.84.81-1.5-1.11-.82-2.33,1.98-3.62,6.95-7.41,10.49-9.51.85-.51,5.49-3.48,5.84-1.65.28,1.49-5.03,5.88-6.29,6.95Z"/>
    <path d="M201.97,269.19c.03,9.39,6.44,19.28,13.42,25.18,8.39,7.1,28.34,14.31,21.53-5.03-4.72-13.37-20.98-23.02-34.95-20.16ZM232.4,294.86c-.17.7-.86.71-1.52.54-1.57-.39-7.72-4.57-9.22-5.79-1.09-.89-8.58-8.28-7.26-9.49.83-.75,6.37,2.55,7.46,3.28,2.1,1.4,11.14,8.95,10.53,11.46Z"/>
    <path d="M61.01,337.98c-2,3.36-10.22,1.29-11-2.22l-.08-25.86c.51-3.25,7.43-7.98,10.33-5.63.57.46,1.07,1.81,1.17,2.58.81,6.54-.12,16.08-.04,23.04.03,2.79,1.39,5.12-.37,8.09ZM82.9,344.87c.2,3.18,3.05,10.51-2.73,11.28-5.71.76-9.66-1.24-10.27-7.28-1.71-16.95,1.23-36.7.04-53.95.21-2.52,4.02-6.21,6.32-6.68,2.75-.56,6.81-.72,7.86,2.41,1.32,3.92-1.41,6.52-1.75,10.21-1.11,12.31-.27,31.43.52,44.02ZM121.61,378.08c-3.75.49-16.38.43-19.71-.71-3.81-1.3-6.37-4.86-7.38-8.62-.95-33.18-1.08-66.63,0-99.77.67-2.42,4.35-4.84,6.76-5.24,3.96-.66,18.21-.6,22.25.01,2.91.44,4.88,2.26,5.25,5.25l.13,101.36c-.43,4.26-2.99,7.16-7.29,7.71ZM172.42,376.89c-2.86,8-8.89,6.08-15.79,6.21-3.88.08-7.69.77-11.77-.19-5.29-1.24-6.69-7.92-6.98-12.52-1.07-16.53.1-35.24.04-52.04-.05-16.18-1.53-33.85-.01-49.97.42-4.49,2.53-8.89,7.37-9.63,3.49-.53,18.79-.55,21.72.52,3.75,1.37,5.93,5.9,6.35,9.65l.05,103.94c-.23,1.35-.52,2.73-.98,4.02ZM148.34,153.57c.07-.59.11-1.52.79-1.72.81-.24,1.22.32,1.76.73,1.04.78,7.99,7.92,7.99,8.52-1.98,2.6-4.06,5.35-6.26,7.76-.63.69-2.93,3.51-3.5,3.51-2.15.02-.77-3.04-.74-4.25.14-4.55-.55-10.22-.05-14.54ZM304.9,330.87l-.75.75h-119c-.17,0-.76-.66-1.25-.5v-11.25c0-1.7,4.35-.72,5.23-.72,38.02-.14,76.03.07,114.05-.05l1.72.78v11ZM303.9,309.87c-7.57.58-15.19.09-22.77.23-1.31.02-2.53.52-3.96.54-30.94.47-61.88-.44-92.78-.52l-.03-10.69c.06-.21,1.65-.81,1.78-.81h20.25l-5.71-8.04c-3.31-5.57-5.67-11.6-7.05-17.95-.54-2.5-2.32-8.35.1-10.04.24-.17,4.17-1.47,4.41-1.47h13.75c-1.76-6.96-3.61-15.54-.02-22.27,3.53-6.63,9.64-2.74,15.02-1.73v-11.25c0-5.6,7.12-17.93,11.49-21.51,5.25-4.31,9.95,1.84,12.93,6.1,1.81,2.58,6.08,11.1,6.08,13.92,0,4.26.21,8.78,0,13,0,.08-1.23,1.86.24,1.24,2.23-.93,5.03-3.65,8-3.53,7.09.29,5.7,11.56,5.79,16.31l-1.54,10.49c4.97.12,9.59-1.16,14.79-.79,5.83.42,7.11.27,6.72,6.26-.54,8.54-3.92,18.55-9.08,25.42-1.55,2.06-3.71,3.61-4.92,5.83h25.25c.09,0,1.52.56,1.61.64.99.9,1.19,9.86-.36,10.62ZM211.87,151.35c.23-2.58.95-5.04,1.76-7.48,3.08-9.3,7.52-18.36,10.99-27.52l1.67.84c.11,6.44,1.89,13.53,1.1,19.94-.16,1.28-.58,1.6-1.25,2.52-.68.94-10.77,10.27-11.8,10.93-.79.51-1.48.93-2.47.77ZM306.62,165.33c-2.51,2.02-9.51,12.58-11.78,13.26-.42.13-.51.19-.99.06-1.72-.44-13.71-16.78-16-19.55-3.67-4.43-7.62-8.75-11.49-13.02-3.39-1.59-1.9,7.61-6.49,5.5-3.88-1.79-8.26-17.4-9.28-21.72-2.8-11.88-4.27-24.56-6.35-36.65-.24-1.37-2.23-3.58,1.13-3.65,5.13,6.42,10.78,12.4,16.2,18.57,13.04,14.86,26.62,30.44,38.5,46.25.93,1.24,6.41,8.39,6.59,8.94.22.7.39,1.33-.04,2.01ZM353.42,366.39c-.2,4.03-.48,10.51-3.19,13.56-1.18,1.33-3.82,2.88-5.62,3.13-3.99.54-16.95.56-20.91,0-3.7-.53-5.29-4.07-6.17-7.33l-.12-108.88c.53-4.06,3.22-7.48,7.38-8.12,3.53-.54,18.32-.59,21.45.29,5.04,1.4,6.34,6.69,6.69,11.31,1.5,20.03-.16,43.66-.06,64.02.05,10.56,1.09,21.37.56,32.02ZM357.66,171.33c-2.08-.29-6.68-6.53-8-8.53-.7-1.06-3.8-6.41-3.79-7.23.66-2.5,2.04-.28,3.32.45l10.92,13.33c.91,1.96-.95,2.18-2.45,1.97ZM396.4,366.87c-.81,6.02-4.61,10.48-10.81,11.19-3.16.37-15.5.52-18.21-.18-3.51-.92-5.55-5.22-5.93-8.57l-.05-99.45c.58-5.08,4.62-5.71,8.9-6.1,4.28-.39,15.39-.75,19.09.61,6.1,2.25,6.71,8.78,7.04,14.46,1.65,28.76-1.29,59.1-.02,88.03ZM420.92,347.39c-.17,2.39-.74,6.02-2.69,7.56-3.38,2.68-11.41,2.94-12.29-2.61-.69-4.31,1.67-4.79,1.98-8.45,1.23-14.38-.98-30.48,0-45.05.13-1.57-1.6-2.11-2.15-3.35-1.12-2.57.34-6.87,3.4-7.34,6.54-1.02,10.93.88,11.66,7.78-.81,16.76,1.29,34.85.08,51.46ZM441.37,335.34c-.8,5.17-8.75,6.5-10.5,3.56-1.05-1.76-.39-15.25-.45-18.55-.05-3.01-1.88-13.37,1.1-15.11,3.84-2.24,9.3,2.73,9.84,6.67.57,4.17.64,19.37.01,23.42ZM9.91,281.84c3.12,35.13,14.78,70.19,35.75,102.46,77.33,119.05,237.48,144.92,348.31,55.01,51.42-41.71,79.9-100.19,84.4-160.23l-7.01-6.75c-3.05-2.7-6.76-5.99-7.98-7.26-38.74-40.69-75.68-82.99-114.26-123.75-1.65-1.74-9.48-10.12-10.76-10.77-1.01-.52-4.1,3.05-5.01,4.02-6.25,6.58-11.73,13.95-18.22,20.3l-2.41-.02c-4.81-5.58-9.15-11.6-13.87-17.26-16.87-20.23-34.5-41.95-52.23-61.27-.85-.93-5.21-5.51-6.01-5.51l-71.77,80.28c-.97.53-2-.11-2.74-.76-4.3-3.76-8.98-10.88-13.22-15.26-1.26-1.31-5.78-6.62-7.43-5.65-.26.47-.42,1.01-.81,1.41-30.52,31.39-58.91,64.8-88.02,97.5-12.7,14.27-26.68,27.48-37.79,43.2l-8.92,10.28Z"/>
    <path d="M264.32,244.45c-.51-1.64-4.25.32-5.22.88-5.91,3.4-12.61,10.71-13.57,17.68l-2.13,14.12c-1.2.14-1.64-.83-1.98-1.76-3.48-9.35,0-16.38-8.72-25.02-2.25-2.23-10.97-8.78-13.95-6.77-2.63,1.78-.07,11.49.8,14.15,1.79,5.48,7.72,8.46,11.68,12.57,5.17,5.37,7.4,9.98,11.07,16.19,1.37,2.32,2.2-2.6,2.66-3.56,4.02-8.32,10.86-11.46,14.38-18.62,1.76-3.59,6.07-16.38,4.99-19.85ZM234.87,266.33c-.06.22-.68,1.02-.97.54-.34-.41-1.03-.55-1.35-.9-.98-1.09-4.14-8.33-3.16-9.34,2.97-.28,6.03,7.58,5.47,9.71ZM249.4,271.62c-.04-3.83,1.01-11.96,5.99-11.5-1.05,4.26-2.88,8.34-5.99,11.5Z"/>
    <path d="M114.55,275.72c-2.29-.68-4.84.66-7.15.4v88.25c0,1.71,5.93,1.3,7.18,1.18l.82-1.18c.47-26.99-.63-54.04-.02-81.02.05-2.03,1.72-6.87-.83-7.62Z"/>
    <path d="M150.37,318.39c.05,10.36.39,21.09.54,31.46.09,6.34-.11,12.68-.02,19.02l.75,1.25h7.75v-99.5h-8.5c-.82,15.81-.6,31.87-.52,47.77Z"/>
    <polygon points="331.4 370.12 339.15 370.12 339.4 270.62 331.65 270.62 331.4 370.12"/>
    <path d="M374.64,276.61l.24,88.67c.28,1.18,6.53,1.07,7.68.37.26-.16.84-1.09.84-1.29v-88.25c-1.87-.4-7.72-1.25-8.76.49Z"/>
  </g>
  <g>
    <path d="M4.98,188.44c.07-.65.21-1.42.4-2.31.2-.89.39-1.66.56-2.32.17-.62.4-1.38.68-2.26.28-.88.58-1.62.88-2.21l35.92-1.6c.16.63.21,1.39.13,2.29-.08.9-.22,1.72-.42,2.46-.34,1.25-.89,2.15-1.66,2.69-.77.55-2.06.83-3.88.85l-13.43.13c-1.48,0-3.22,0-5.22,0-2,0-3.88-.02-5.63-.04l-.08.3c.86.41,1.81.9,2.85,1.49,1.04.58,2.07,1.18,3.1,1.78s1.95,1.16,2.78,1.67l15.74,9.67c-.02.52-.09,1.07-.21,1.63-.12.57-.26,1.16-.43,1.79-.16.59-.38,1.25-.67,1.97-.29.72-.57,1.29-.85,1.68l-.52.17-30.04-19.84ZM31.72,195.07c-.06.23-.14.5-.23.8-.09.3-.18.6-.27.9-.09.3-.17.57-.23.8l-1.12,4.13-5.48-4.05.99-3.64c.06-.23.13-.49.2-.79.07-.3.14-.59.22-.89.07-.3.14-.56.2-.79l.98-3.59c.07-.25.14-.51.23-.8.09-.28.17-.58.27-.88s.17-.57.23-.8l1.02-3.76,6.67-.33-1.12,4.13c-.06.23-.13.5-.21.82-.08.31-.15.62-.23.93s-.14.57-.21.8l-1.91,7.01Z"/>
    <path d="M50.7,162.92l-1.42,3.14c-.6,1.33-1.46,2.21-2.58,2.64-1.12.43-2.35.34-3.7-.27l-27.5-12.45-.18-.47,1.23-2.72c.65-1.42,1.51-2.35,2.59-2.78,1.08-.42,2.45-.26,4.1.49l27.46,12.43ZM49.93,147.62c2.35,1.07,3.83,2.2,4.44,3.4.6,1.2.49,2.72-.34,4.56l-4.74,10.48-7.18,1.57c.56-2.19,1.21-4.32,1.95-6.38.74-2.06,1.48-3.92,2.22-5.56l3.65-8.06Z"/>
    <path d="M65.21,135.84l-1.86,2.9c-.79,1.23-1.77,1.98-2.94,2.24-1.17.26-2.37,0-3.62-.81l-25.4-16.32-.11-.49,1.61-2.51c.85-1.32,1.83-2.11,2.96-2.37,1.13-.26,2.46.09,3.99,1.08l25.36,16.29ZM66.67,120.59c2.17,1.4,3.47,2.73,3.9,4,.42,1.27.09,2.76-1,4.46l-6.22,9.68-7.33.51c.88-2.08,1.83-4.09,2.86-6.03,1.03-1.93,2.03-3.66,3.01-5.18l4.78-7.45Z"/>
    <path d="M84.32,104.8c-.74-.9-1.28-1.96-1.62-3.17s-.48-2.34-.4-3.38c1.63-.4,3.33-.99,5.11-1.77,1.78-.78,3.32-1.81,4.62-3.08,1.06-1.03,1.57-2.03,1.53-2.99-.04-.96-.34-1.74-.91-2.32-.38-.39-.94-.71-1.69-.97-.75-.25-1.84-.1-3.28.48l-6.18,2.47c-2.12.84-4.2,1.22-6.22,1.12s-3.88-1.01-5.58-2.75c-1.49-1.52-2.39-3.23-2.71-5.14s-.12-3.84.6-5.79c.72-1.95,1.9-3.74,3.56-5.35,1.73-1.69,3.56-3.05,5.51-4.09,1.95-1.04,3.64-1.77,5.07-2.2.77.89,1.36,1.88,1.77,3,.41,1.11.58,2.21.52,3.29-1.35.47-2.83,1.12-4.43,1.96-1.6.84-2.9,1.74-3.88,2.71-1.05,1.02-1.56,1.98-1.55,2.89.01.9.26,1.6.75,2.1.45.46,1.01.72,1.68.79s1.57-.13,2.7-.57l6.29-2.54c1.65-.67,3.25-1.04,4.77-1.12,1.53-.08,2.95.13,4.26.62s2.48,1.26,3.52,2.32c1.44,1.47,2.38,3.14,2.82,5.02.44,1.87.29,3.85-.45,5.92-.74,2.07-2.18,4.15-4.31,6.23-1.48,1.45-3.28,2.76-5.4,3.92-2.12,1.17-4.28,1.97-6.48,2.42Z"/>
    <path d="M92.38,54.72l.08-.5,6.25-4.46,3.9,5.46c.41.58.79,1.09,1.13,1.54.34.45.71.95,1.12,1.52l8.15,11.42c.39.54.73,1.04,1.03,1.49.3.45.66.96,1.06,1.53l3.93,5.5-2.72,1.94c-1.19.85-2.37,1.17-3.54.97-1.17-.2-2.18-.9-3.04-2.11l-17.35-24.3ZM110.36,41.45c.47.42.87.84,1.2,1.26.33.42.63.82.9,1.19.27.37.55.87.85,1.48.3.61.54,1.23.71,1.86l-8.49,6.06c-.35.25-.84.59-1.48,1.04-.64.45-1.3.9-1.98,1.37-.68.47-1.25.85-1.7,1.15l-3.91-5.48,13.91-9.93ZM116.02,54.61c.44.29.87.68,1.3,1.16.43.48.77.9,1.02,1.26.28.39.56.85.87,1.39.3.54.53,1.08.68,1.61l-6.33,4.52c-.35.25-.84.59-1.48,1.04-.64.45-1.3.9-1.98,1.37-.68.47-1.25.85-1.7,1.15l-3.75-5.25c.43-.33.98-.74,1.64-1.23.66-.49,1.31-.97,1.94-1.43.63-.46,1.12-.81,1.47-1.06l6.33-4.52ZM127.75,63.63c1.3,1.83,2,3.41,2.1,4.75.1,1.34-.74,2.64-2.51,3.9l-10.58,7.56-3.81-5.33c.87-.68,1.7-1.34,2.49-1.98s1.69-1.32,2.7-2.04l9.61-6.86Z"/>
    <path d="M131.57,29.47c.54-.38,1.2-.78,2-1.22.8-.44,1.5-.81,2.11-1.11.58-.28,1.3-.61,2.15-.98.85-.37,1.6-.63,2.24-.8l24.92,25.93c-.36.54-.91,1.07-1.64,1.61s-1.44.98-2.13,1.31c-1.16.57-2.2.75-3.12.53-.92-.21-1.98-1-3.2-2.35l-8.96-10c-.98-1.11-2.13-2.42-3.44-3.92-1.31-1.5-2.54-2.92-3.69-4.25l-.27.13c.26.92.51,1.95.76,3.12.25,1.17.48,2.33.71,3.5.22,1.17.42,2.23.58,3.19l3.13,18.2c-.41.33-.86.64-1.36.92-.5.29-1.05.57-1.63.85-.55.27-1.19.54-1.92.8-.73.26-1.34.42-1.83.47l-.48-.28-4.92-35.67ZM144.23,53.93c-.21.11-.46.22-.75.35-.29.13-.57.26-.86.39-.29.13-.54.25-.75.35l-3.85,1.89-.57-6.79,3.39-1.66c.21-.1.46-.23.73-.37s.54-.28.81-.43.51-.27.73-.37l3.34-1.64c.23-.11.48-.23.75-.35.27-.12.55-.25.84-.38s.54-.25.75-.35l3.5-1.72,4.65,4.79-3.85,1.88c-.21.1-.46.23-.75.38-.29.15-.57.3-.85.44-.28.15-.52.27-.74.38l-6.53,3.2Z"/>
    <path d="M169.19,47.17c-.23-1.14-.22-2.33.03-3.57.26-1.24.66-2.3,1.22-3.17,1.63.4,3.41.67,5.35.8,1.94.14,3.78-.06,5.52-.58,1.42-.42,2.33-1.07,2.74-1.94.41-.87.5-1.7.27-2.48-.16-.52-.51-1.07-1.05-1.64-.54-.57-1.59-.94-3.13-1.1l-6.62-.67c-2.27-.24-4.28-.87-6.03-1.89-1.74-1.02-2.97-2.69-3.67-5.02-.61-2.04-.62-3.97-.02-5.81.6-1.84,1.67-3.46,3.21-4.85,1.54-1.4,3.42-2.43,5.63-3.09,2.31-.69,4.57-1.05,6.78-1.06,2.21-.01,4.04.12,5.51.41.27,1.14.33,2.3.18,3.47-.15,1.17-.51,2.22-1.06,3.15-1.41-.21-3.03-.32-4.83-.32-1.81,0-3.37.2-4.69.6-1.4.42-2.3,1.03-2.71,1.84-.41.81-.51,1.54-.31,2.21.19.62.56,1.11,1.12,1.47.56.36,1.45.61,2.66.75l6.75.66c1.77.18,3.36.58,4.75,1.22,1.39.64,2.55,1.48,3.49,2.52.93,1.04,1.61,2.27,2.04,3.69.59,1.97.65,3.89.17,5.75s-1.53,3.54-3.15,5.03c-1.62,1.49-3.86,2.66-6.7,3.52-1.99.6-4.19.92-6.6.97-2.42.05-4.7-.24-6.86-.87Z"/>
    <path d="M199.49,23.65c-.46-3.61-.32-6.83.42-9.67.74-2.84,2.13-5.14,4.15-6.92,2.03-1.78,4.74-2.88,8.15-3.32,2.56-.33,4.84-.18,6.84.44,2,.62,3.72,1.64,5.16,3.07,1.44,1.43,2.61,3.21,3.5,5.34s1.51,4.54,1.85,7.22c.46,3.63.32,6.86-.43,9.71-.75,2.85-2.14,5.16-4.16,6.93-2.03,1.78-4.74,2.88-8.15,3.32-2.56.33-4.84.18-6.84-.44-2-.62-3.72-1.65-5.15-3.08-1.44-1.44-2.6-3.22-3.49-5.35-.89-2.13-1.51-4.55-1.85-7.24ZM207.94,22.57c.17,1.33.42,2.68.74,4.04.32,1.37.78,2.6,1.38,3.72.6,1.11,1.38,1.98,2.35,2.59.97.61,2.18.83,3.63.64,1.47-.19,2.59-.7,3.36-1.54.78-.84,1.31-1.87,1.61-3.1s.43-2.54.4-3.95c-.03-1.4-.14-2.77-.31-4.1s-.42-2.68-.73-4.03c-.32-1.36-.78-2.59-1.37-3.71-.6-1.12-1.38-1.97-2.34-2.58-.96-.61-2.17-.81-3.64-.63-1.45.19-2.57.69-3.35,1.52-.79.83-1.33,1.86-1.62,3.09-.3,1.23-.43,2.54-.4,3.93.03,1.39.13,2.76.3,4.09Z"/>
    <path d="M242.98,2.22c.65-.1,1.49-.16,2.51-.18,1.02-.01,1.8,0,2.32.02s1.23.08,2.1.16c.87.08,1.75.2,2.62.37l-2.54,9.14-.54.18c.06,1.45.09,3.09.09,4.92,0,1.83-.02,3.65-.07,5.47s-.1,3.43-.17,4.84l-.52,10.14c-.67.08-1.33.13-1.97.13-.65,0-1.23-.01-1.73-.04-.49-.03-1.1-.07-1.83-.15-.73-.07-1.41-.18-2.05-.34l1.79-34.66ZM252.14,19.16c-.49-1.34-.96-2.64-1.39-3.93-.44-1.28-.8-2.42-1.09-3.43l-3.54-4.55,6.42-4.67,6.9,18.59c.57,1.53,1.09,2.98,1.57,4.37s.88,2.57,1.21,3.54l3.9,4.67-6.88,4.06-7.1-18.65ZM270.67,3.52l-1.79,34.66c-.43.06-.96.11-1.6.15-.64.04-1.26.05-1.87.04-.6,0-1.08-.02-1.44-.04-.53-.03-1.22-.08-2.09-.16-.86-.08-1.74-.2-2.64-.37l2.59-8.67.59-.15c-.05-1.59-.08-3.32-.09-5.21s.02-3.71.07-5.46c.05-1.75.1-3.21.16-4.38l.32-6.21c.09-1.82.53-3.07,1.31-3.76.78-.69,1.95-1,3.51-.92l2.62.14.34.35Z"/>
    <path d="M277.95,36.52c.35-1.11.94-2.14,1.78-3.09.83-.95,1.7-1.68,2.62-2.17,1.22,1.15,2.65,2.25,4.27,3.32,1.62,1.07,3.32,1.8,5.1,2.2,1.44.32,2.56.21,3.34-.35.79-.56,1.27-1.23,1.45-2.03.12-.53.08-1.18-.11-1.95-.19-.77-.92-1.6-2.19-2.49l-5.44-3.83c-1.86-1.32-3.31-2.86-4.33-4.6-1.02-1.74-1.26-3.8-.73-6.17.46-2.07,1.41-3.76,2.84-5.07s3.15-2.19,5.18-2.65,4.17-.44,6.43.07c2.36.53,4.5,1.33,6.43,2.39s3.46,2.09,4.61,3.06c-.32,1.13-.84,2.17-1.55,3.12-.71.95-1.53,1.69-2.47,2.23-1.13-.88-2.48-1.76-4.06-2.65-1.58-.89-3.04-1.48-4.38-1.78-1.43-.32-2.51-.23-3.26.28s-1.2,1.09-1.35,1.77c-.14.63-.06,1.24.25,1.83s.96,1.24,1.95,1.95l5.56,3.89c1.46,1.02,2.64,2.16,3.54,3.39s1.5,2.54,1.8,3.91c.3,1.37.29,2.77-.03,4.21-.45,2.01-1.34,3.71-2.67,5.1s-3.07,2.34-5.21,2.84c-2.14.5-4.67.43-7.57-.22-2.02-.45-4.1-1.25-6.23-2.39-2.13-1.14-3.98-2.51-5.56-4.12Z"/>
    <path d="M334.4,57.57c-.68-.2-1.34-.43-1.98-.7-.64-.27-1.22-.54-1.74-.79-.51-.24-1.09-.55-1.77-.91-.67-.36-1.3-.75-1.88-1.16l15.03-31.08.46-.12,7,3.39-1.05,2.18c-.61,1.27-1.23,2.56-1.85,3.88-.62,1.32-1.22,2.58-1.8,3.79l-10.41,21.53ZM353.18,43.68c-.07.5-.21,1.05-.43,1.66-.22.61-.43,1.12-.62,1.51-.2.41-.47.9-.81,1.45s-.69,1.02-1.04,1.39l-8.91-4.31c-.66-.32-1.32-.65-1.98-1-.66-.35-1.21-.64-1.65-.87l2.82-5.83c.46.18,1.03.43,1.71.74.68.31,1.35.62,2.01.94l8.91,4.31ZM362.14,32.29c-.07.46-.21.96-.42,1.51-.21.55-.42,1.04-.62,1.47-.58,1.19-1.32,1.9-2.23,2.12-.91.22-2.02.01-3.34-.62l-5.74-2.78c-1.15-.55-2.23-1.09-3.24-1.59-1.01-.51-2.02-1-3.03-1.49l2.99-6.18,15.63,7.56Z"/>
    <path d="M374.05,39.58c.61.25,1.25.58,1.93.98.68.4,1.23.74,1.64,1,.46.29.99.66,1.6,1.09.61.44,1.17.89,1.67,1.36l-18.92,29.25c-.64-.27-1.28-.59-1.92-.97-.65-.38-1.2-.71-1.66-1.01-.41-.27-.94-.63-1.59-1.09s-1.21-.91-1.68-1.36l18.92-29.25Z"/>
    <path d="M391.57,64.88c.45-.54.85-1.01,1.22-1.42.37-.41.78-.89,1.24-1.44l2.15-2.59,6.21,5.17-2.15,2.59c-.46.55-.86,1.04-1.2,1.48-.34.44-.73.92-1.18,1.46l-15.56,18.7c-.61-.35-1.21-.75-1.79-1.19-.58-.44-1.09-.84-1.52-1.2-.44-.37-.94-.8-1.48-1.3s-1.04-1.01-1.5-1.55l15.56-18.7ZM387.43,56.59c.3-.55.62-1.06.97-1.53s.67-.88.96-1.24c.3-.37.66-.77,1.07-1.2s.85-.85,1.33-1.25l19.4,16.15c-.17.41-.41.86-.72,1.34-.31.48-.64.92-.97,1.33-.85,1.02-1.71,1.52-2.6,1.5-.88-.02-1.89-.49-3.01-1.43l-1.16-.96c-.29-.24-.69-.59-1.21-1.04-.52-.45-.93-.8-1.23-1.06l-6.29-5.24c-.29-.24-.71-.58-1.25-1.01-.55-.43-.96-.77-1.25-1.01l-4.06-3.38Z"/>
    <path d="M420.96,77.17c.53.4,1.15.96,1.87,1.69.72.73,1.25,1.29,1.6,1.69.35.4.79.94,1.34,1.62.55.68,1.07,1.4,1.55,2.15l-8.35,4.5-.5-.27c-1,1.05-2.17,2.21-3.48,3.47-1.32,1.27-2.65,2.52-3.99,3.75-1.34,1.23-2.54,2.31-3.61,3.23l-7.67,6.65c-.52-.42-1.01-.87-1.46-1.33-.45-.47-.84-.89-1.17-1.28-.32-.37-.71-.85-1.16-1.42-.45-.58-.85-1.15-1.18-1.71l26.23-22.73ZM415.09,95.52c.62-1.28,1.24-2.52,1.87-3.73.62-1.2,1.19-2.25,1.72-3.16l.82-5.71,7.82,1.39-8.62,17.86c-.71,1.47-1.39,2.86-2.06,4.16-.67,1.31-1.24,2.42-1.71,3.32l-.67,6.04-7.69-2.14,8.52-18.05ZM439.21,98.04l-26.23,22.73c-.34-.26-.75-.62-1.22-1.05s-.91-.88-1.33-1.32c-.42-.44-.74-.79-.97-1.06-.34-.4-.79-.94-1.33-1.61-.54-.68-1.06-1.4-1.56-2.15l8.05-4.14.52.33c1.11-1.14,2.34-2.36,3.7-3.68,1.36-1.31,2.69-2.56,3.98-3.74,1.29-1.18,2.39-2.15,3.27-2.92l4.7-4.07c1.37-1.19,2.58-1.75,3.62-1.67,1.04.08,2.07.71,3.09,1.89l1.72,1.98-.02.49Z"/>
    <path d="M448.96,112.48l.49.12,3.97,6.57-5.74,3.47c-.61.37-1.15.71-1.62,1.01-.47.3-1.01.64-1.6,1l-12,7.26c-.57.34-1.09.65-1.56.92-.47.27-1.01.58-1.61.94l-5.78,3.5-1.73-2.86c-.76-1.25-.99-2.45-.7-3.6.29-1.15,1.07-2.1,2.33-2.87l25.55-15.45ZM437.39,147.07c-1.92,1.16-3.55,1.74-4.89,1.74-1.34,0-2.58-.94-3.7-2.8l-6.73-11.13,5.61-3.39c.62.92,1.21,1.8,1.78,2.63s1.18,1.78,1.82,2.85l6.11,10.1ZM447.27,136.06c-.33.42-.74.82-1.25,1.2-.51.39-.96.7-1.33.92-.41.25-.89.5-1.45.76-.56.26-1.11.44-1.66.56l-4.02-6.66c-.22-.36-.53-.88-.93-1.56-.4-.67-.8-1.37-1.21-2.08-.41-.71-.75-1.31-1.02-1.78l5.52-3.34c.3.46.67,1.03,1.11,1.73.44.7.87,1.38,1.28,2.04.41.66.73,1.18.95,1.54l4.02,6.66ZM460.82,131.41c-.45.43-.9.8-1.35,1.1-.44.3-.86.57-1.26.8-.39.24-.91.48-1.54.74-.63.25-1.27.44-1.91.57l-5.4-8.92c-.22-.36-.53-.88-.93-1.56-.4-.67-.8-1.37-1.21-2.08-.41-.71-.75-1.31-1.02-1.78l5.76-3.48,8.84,14.62Z"/>
    <path d="M437.49,155.24c1.11-.34,2.29-.45,3.55-.31,1.26.14,2.35.44,3.28.91-.24,1.66-.33,3.46-.28,5.41.05,1.94.42,3.76,1.11,5.44.56,1.37,1.29,2.22,2.2,2.54.91.33,1.74.34,2.49.03.5-.21,1.01-.61,1.53-1.21s.78-1.67.79-3.22l.03-6.65c.02-2.29.46-4.35,1.3-6.18.85-1.83,2.4-3.21,4.65-4.13,1.97-.8,3.9-1,5.79-.57,1.89.42,3.6,1.33,5.14,2.73,1.54,1.4,2.74,3.17,3.62,5.31.91,2.23,1.48,4.45,1.71,6.64.23,2.19.27,4.04.12,5.53-1.11.38-2.26.55-3.44.51s-2.26-.29-3.24-.75c.08-1.43.03-3.04-.15-4.84-.18-1.8-.53-3.34-1.05-4.61-.55-1.35-1.25-2.19-2.09-2.52-.84-.33-1.58-.36-2.23-.09-.6.25-1.05.66-1.36,1.26-.31.59-.47,1.5-.49,2.72v6.78c-.02,1.78-.27,3.4-.77,4.84-.5,1.45-1.23,2.68-2.17,3.71-.95,1.03-2.11,1.82-3.47,2.38-1.9.78-3.81,1.02-5.71.72-1.9-.3-3.67-1.18-5.31-2.65s-3.02-3.58-4.15-6.33c-.79-1.92-1.32-4.08-1.6-6.48-.28-2.4-.21-4.71.2-6.92Z"/>
    <path d="M449.5,185.86c1.15-.17,2.33-.09,3.56.24,1.22.33,2.26.8,3.1,1.4-.49,1.6-.86,3.37-1.11,5.3-.25,1.93-.16,3.78.26,5.55.34,1.44.94,2.39,1.78,2.85.84.46,1.66.6,2.46.41.53-.13,1.1-.44,1.7-.95.6-.51,1.03-1.53,1.28-3.06l1.06-6.57c.37-2.26,1.12-4.22,2.24-5.91s2.86-2.8,5.23-3.37c2.07-.49,4-.38,5.8.32,1.8.71,3.35,1.87,4.66,3.49s2.22,3.56,2.76,5.81c.56,2.35.78,4.62.67,6.83-.11,2.2-.36,4.03-.73,5.48-1.16.21-2.32.2-3.48-.02-1.16-.22-2.19-.64-3.09-1.25.3-1.4.5-3,.6-4.81.1-1.81,0-3.38-.32-4.72-.34-1.42-.9-2.36-1.68-2.81-.78-.45-1.51-.6-2.19-.44-.63.15-1.14.49-1.54,1.03-.4.54-.7,1.41-.9,2.61l-1.05,6.7c-.28,1.76-.78,3.32-1.5,4.67-.72,1.35-1.62,2.46-2.72,3.33-1.09.87-2.36,1.48-3.8,1.82-2,.48-3.92.42-5.75-.17s-3.45-1.73-4.84-3.44c-1.39-1.71-2.43-4-3.12-6.9-.48-2.02-.67-4.23-.59-6.65.09-2.42.51-4.68,1.27-6.8Z"/>
  </g>
</svg>