<?xml version="1.0" encoding="UTF-8"?>
<svg id="Layer_1" data-name="Layer 1" xmlns="http://www.w3.org/2000/svg" viewBox="0 0 468.47 422.26">
  <path d="M138.44,82.74c.07-.59.11-1.52.79-1.72.81-.24,1.22.32,1.76.73,1.04.78,7.99,7.92,7.99,8.52-1.98,2.6-4.06,5.35-6.26,7.76-.63.69-2.93,3.51-3.5,3.51-2.15.02-.77-3.04-.74-4.25.14-4.55-.55-10.22-.05-14.54ZM201.96,80.51c.23-2.58.95-5.04,1.76-7.48,3.08-9.3,7.52-18.36,10.99-27.52l1.67.84c.11,6.44,1.89,13.53,1.1,19.94-.16,1.28-.58,1.6-1.25,2.52-.68.94-10.77,10.27-11.8,10.93-.79.51-1.48.93-2.47.77ZM296.72,94.5c-2.51,2.02-9.51,12.58-11.78,13.26-.42.13-.51.19-.99.06-1.72-.44-13.71-16.78-16-19.55-3.67-4.43-7.62-8.75-11.49-13.02-3.39-1.59-1.9,7.61-6.49,5.5-3.88-1.79-8.26-17.4-9.28-21.72-2.8-11.88-4.27-24.56-6.35-36.65-.24-1.37-2.23-3.58,1.13-3.65,5.13,6.42,10.78,12.4,16.2,18.57,13.04,14.86,26.62,30.44,38.5,46.25.93,1.24,6.41,8.39,6.59,8.94.22.7.39,1.33-.04,2.01ZM347.75,100.5c-2.08-.29-6.68-6.53-8-8.53-.7-1.06-3.8-6.41-3.79-7.23.66-2.5,2.04-.28,3.32.45l10.92,13.33c.91,1.96-.95,2.18-2.45,1.97ZM0,211.01c3.12,35.13,14.78,70.19,35.75,102.46,77.33,119.05,237.48,144.92,348.31,55.01,51.42-41.71,79.9-100.19,84.4-160.23l-7.01-6.75c-3.05-2.7-6.76-5.99-7.98-7.26-38.74-40.69-75.68-82.99-114.26-123.75-1.65-1.74-9.48-10.12-10.76-10.77-1.01-.52-4.1,3.05-5.01,4.02-6.25,6.58-11.73,13.95-18.22,20.3l-2.41-.02c-4.81-5.58-9.15-11.6-13.87-17.26-16.87-20.23-34.5-41.95-52.23-61.27-.85-.93-5.21-5.51-6.01-5.51l-71.77,80.28c-.97.53-2-.11-2.74-.76-4.3-3.76-8.98-10.88-13.22-15.26-1.26-1.31-5.78-6.62-7.43-5.65-.26.47-.42,1.01-.81,1.41-30.52,31.39-58.91,64.8-88.02,97.5-12.7,14.27-26.68,27.48-37.79,43.2l-8.92,10.28Z"/>
</svg>